# xmcd
# 
# Track frame offsets:
#     150
#     15632
#     29650
#     43016
#     56759
#     71261
#     84650
#     97046
#     108755
#     119212
#     133573
#     145226
#     157954
#     170713
#     184380
#     199089
#     213328
# 
# Disc length: 2998
# 
# Revision: 4
# Processed by: cddbd v1.5.2PL0 Copyright (c) Steve Scherf et al.
# Submitted via: fre:ac v1.0.27
# 
DISCID=fb0bb411
DTITLE=Muddy Waters - Country Blues
DYEAR=0
DGENRE=
TTITLE0=Country Blues
TTITLE1=I Be's Troubled
TTITLE2=Burr Clover Farm Blues
TTITLE3=Take A Walk With Me
TTITLE4=Burr Clover Blues
TTITLE5=Walkin' Blues
TTITLE6=I Can't Be Satisfied
TTITLE7=Gypsy Woman
TTITLE8=Mean Red Spider
TTITLE9=I Feel Like Going Home
TTITLE10=Little Anna Mae
TTITLE11=Train Fare Home Blues
TTITLE12=Little Geneva
TTITLE13=Rollin' And Tumblin'
TTITLE14=Streamline Woman
TTITLE15=Rolling Stone
TTITLE16=You Gonna Miss Me
EXTD=
EXTT0=
EXTT1=
EXTT2=
EXTT3=
EXTT4=
EXTT5=
EXTT6=
EXTT7=
EXTT8=
EXTT9=
EXTT10=
EXTT11=
EXTT12=
EXTT13=
EXTT14=
EXTT15=
EXTT16=
PLAYORDER=
